<svg viewBox="0 0 1024 1176.463" xmlns="http://www.w3.org/2000/svg"><path d="M661.636 537.073v12.636c-.904 20.49-17.734 36.758-38.365 36.758-.908 0-1.81-.032-2.702-.094l.12.007c-17.675 0-29.23-9.116-29.23-23.152 0-13.676 11.116-22.394 30.75-23.713zm46.667-87.537l57.823 160.314c0 .12-2.92 9.6-2.92 9.877-1.898 13.023-12.99 22.912-26.39 22.912-.718 0-1.43-.03-2.134-.085l.093.006c-.56.02-1.22.03-1.88.03-3.103 0-6.153-.23-9.134-.67l.338.04v26.633c3.99.458 8.644.733 13.357.76h.04c33.19 0 49.023-12.48 62.7-51.306l59.984-168.512h-34.71l-40.467 130.323h-.6l-40.51-130.36zm-77.577-2.88c-39.588 0-64.22 21.312-66.06 50.226h31.07c3.264-13.677 15.382-23.69 29.838-23.69 1.394 0 2.767.093 4.11.274l-.156-.017c20.074 0 32.11 10.636 32.11 28.43v12.36l-43.866 2.56c-38.03 2.16-59.503 19.355-59.503 47.347.02 26.79 21.742 48.497 48.533 48.497 1.666 0 3.312-.084 4.935-.248l-.204.017c.23.003.5.005.772.005 21.243 0 39.78-11.593 49.626-28.797l.147-.28h.76v26.353h31.51v-110.37c-.002-32.11-24.795-52.667-63.624-52.667zM302.66 430.784c-17.995.4-33.19 11.197-41.988 11.197-9.397 0-23.713-10.56-39.232-10.276-21.12.544-39.37 12.332-49.036 29.58l-.15.292c-5.78 13.772-9.14 29.78-9.14 46.57 0 27.556 9.046 53 24.33 73.523l-.234-.328c9.957 14.636 21.952 30.75 37.75 30.15 14.915-.56 20.793-9.676 38.908-9.676 18.155 0 23.433 9.677 39.188 9.398 16.396-.28 26.673-14.636 36.59-29.312 6.678-9.67 12.245-20.812 16.135-32.713l.26-.918c-18.794-8.39-31.692-26.84-31.872-48.323v-.024c.265-19.12 10.397-35.815 25.524-45.254l.228-.133c-9.856-13.852-25.583-22.972-43.472-23.71l-.112-.005q-1.837-.115-3.68-.08zm126.124-11.997h39.268c1.672-.242 3.603-.38 5.566-.38 22.626 0 40.968 18.342 40.968 40.968 0 1.042-.04 2.074-.115 3.096l.01-.135c.066.878.104 1.9.104 2.933 0 22.705-18.406 41.11-41.11 41.11-1.954 0-3.876-.136-5.758-.4l.217.025h-39.15zm-34.07-28.752V609.69h34.07v-75.057h47.184c1.12.064 2.43.1 3.75.1 38.49 0 69.69-31.2 69.69-69.69 0-1.01-.02-2.013-.063-3.013l.005.143c.052-.997.08-2.164.08-3.338 0-38.068-30.86-68.928-68.927-68.928-1.214 0-2.42.03-3.62.093l.168-.007zm-88.256-16.795c-14.132 1.42-26.463 8.164-35.133 18.168l-.056.067c-7.91 8.825-12.747 20.547-12.747 33.398 0 1.165.04 2.32.118 3.466l-.007-.156c.25.005.548.008.845.008 14 0 26.482-6.495 34.6-16.635l.068-.088c7.746-9.247 12.45-21.27 12.45-34.39 0-1.338-.048-2.663-.144-3.975l.01.176zM118.113 225.28h797.45c2.64 0 5.238.08 7.878.12 5.374.094 10.558.556 15.626 1.363l-.63-.083c4.305.75 8.158 2.058 11.712 3.867l-.234-.108c7.047 3.63 12.645 9.228 16.178 16.067l.097.207c1.724 3.334 3.034 7.203 3.725 11.282l.033.235c.74 4.462 1.188 9.636 1.24 14.905v.05c.08 2.6.12 5.2.12 7.88V743.01c0 2.6 0 5.198-.12 7.837-.05 5.333-.515 10.52-1.36 15.575l.08-.58c-1.84 12.185-9.39 22.284-19.786 27.615l-.21.097c-3.31 1.714-7.15 3.023-11.197 3.724l-.24.035c-4.433.743-9.59 1.206-14.84 1.28h-.075l-8 .12H108.355c-2.64 0-5.318-.08-7.837-.12-5.35-.07-10.536-.534-15.6-1.36l.604.08c-4.32-.757-8.187-2.065-11.76-3.87l.24.11c-7.045-3.614-12.636-9.218-16.14-16.067l-.095-.207c-1.72-3.334-3.03-7.203-3.725-11.28l-.034-.24c-.754-4.442-1.217-9.6-1.28-14.852v-.062q-.077-3.933-.076-7.87V281.024c0-2.6 0-5.24.08-7.878.1-5.38.562-10.562 1.363-15.632l-.083.637c.764-4.306 2.07-8.156 3.87-11.716l-.11.24c3.63-7.032 9.23-12.618 16.068-16.135l.208-.098c3.32-1.7 7.172-3.01 11.23-3.723l.247-.037c4.46-.745 9.643-1.208 14.923-1.28h.073c2.6-.08 5.24-.08 7.838-.12zm0-20.474q-9.078.01-18.155.12c-6.464.104-12.71.682-18.806 1.7l.73-.1c-18.63 3.023-34.036 14.627-42.236 30.548l-.15.323c-2.575 4.978-4.527 10.755-5.55 16.847l-.05.348c-.982 5.39-1.563 11.612-1.6 17.963v.032q-.12 4.178-.16 8.358V743.09c0 2.798.08 5.518.12 8.277.083 6.445.66 12.692 1.7 18.782l-.1-.708c1.14 6.437 3.115 12.193 5.84 17.5l-.16-.345c5.62 10.906 14.286 19.572 24.872 25.042l.32.15c4.976 2.578 10.748 4.554 16.83 5.625l.366.053c5.36.942 11.58 1.52 17.92 1.6h.075l8.32.12 815.8-.12c6.446-.082 12.693-.66 18.783-1.7l-.707.1c6.418-1.117 12.163-3.08 17.456-5.797l-.34.16c10.933-5.615 19.616-14.3 25.08-24.91l.15-.322c2.586-4.977 4.55-10.752 5.59-16.843l.05-.352c.94-5.36 1.52-11.58 1.6-17.92v-.075c.08-2.8.12-5.52.12-8.32l.04-9.837V280.9c0-2.8-.08-5.52-.16-8.28-.083-6.445-.662-12.69-1.7-18.78l.1.707c-4.035-24.717-23.275-43.97-47.65-47.98l-.336-.047c-5.378-.934-11.625-1.513-17.99-1.6h-.085q-9.055-.256-18.114-.12z"/></svg>